<?xml version="1.0" encoding="UTF-8"?>
<svg version="1.1" xmlns="http://www.w3.org/2000/svg" width="500" height="500">
<path d="M0 0 C7.26 0 14.52 0 22 0 C26.29601462 10.05105307 30.11730974 20.2383252 33.875 30.5 C34.49964365 32.20053216 35.12431829 33.90105293 35.74902344 35.6015625 C47.26397604 66.99281639 47.26397604 66.99281639 48.8203125 73.3515625 C49.78101156 76.21765614 49.78101156 76.21765614 52.6015625 77.4609375 C53.59929687 77.76257813 54.59703125 78.06421875 55.625 78.375 C56.62789063 78.69210938 57.63078125 79.00921875 58.6640625 79.3359375 C59.43492187 79.55507812 60.20578125 79.77421875 61 80 C61 79.34 61 78.68 61 78 C61.66 78 62.32 78 63 78 C63 77.34 63 76.68 63 76 C63.66 76 64.32 76 65 76 C65.25136719 75.41992188 65.50273437 74.83984375 65.76171875 74.2421875 C67.1544465 71.72033978 68.72936452 70.10855921 70.8125 68.125 C73.33394885 65.68134539 75.69182827 63.25014469 77.875 60.5 C78.57625 59.675 79.2775 58.85 80 58 C80.66 58 81.32 58 82 58 C82.23976563 57.39671875 82.47953125 56.7934375 82.7265625 56.171875 C84.27674613 53.52800354 85.69376154 52.69305857 88.375 51.25 C89.14585937 50.82203125 89.91671875 50.3940625 90.7109375 49.953125 C93 49 93 49 97 49 C96.835 49.5775 96.67 50.155 96.5 50.75 C95.85537969 53.26664369 95.85537969 53.26664369 96 57 C96.4125 56.484375 96.825 55.96875 97.25 55.4375 C97.8275 54.963125 98.405 54.48875 99 54 C101.1875 54.3125 101.1875 54.3125 103 55 C102.41857465 58.99218113 100.3857923 61.25506587 97.8828125 64.33984375 C92.73995632 70.92689337 89.31331817 77.98495291 85.875 85.5625 C82.63063125 92.64355128 79.44259835 99.52593926 75.0078125 105.96484375 C72.75670982 109.38757666 72.01169221 110.55242217 71.90234375 114.73828125 C72.26457031 115.81464844 72.62679687 116.89101562 73 118 C73.37253906 119.14855469 73.74507812 120.29710937 74.12890625 121.48046875 C74.60199219 122.70378906 75.07507813 123.92710937 75.5625 125.1875 C75.95296509 126.20203247 75.95296509 126.20203247 76.35131836 127.23706055 C77.2249049 129.49512235 78.11143717 131.74779189 79 134 C79.32484375 134.82918945 79.6496875 135.65837891 79.984375 136.51269531 C81.0051686 139.11473746 82.03224932 141.71418864 83.0625 144.3125 C83.37840088 145.11131592 83.69430176 145.91013184 84.01977539 146.7331543 C86.97265512 154.10892281 90.30061187 161.30006309 93.6159668 168.51831055 C95.08388787 171.7313866 96.5154888 174.95925291 97.93139648 178.19555664 C98.51697147 179.51938771 99.11329893 180.83851657 99.72045898 182.15258789 C104.5268083 192.58302894 107.80716744 203.57849768 104 215 C93.77 215 83.54 215 73 215 C69 205 69 205 68 200 C66.948125 199.79375 65.89625 199.5875 64.8125 199.375 C61.22320437 198.67121654 59.38318844 196.61231048 57.16235352 193.78417969 C55.15791519 190.70742369 54.12470789 187.43138031 53.0625 183.9375 C52.81870605 183.17324707 52.57491211 182.40899414 52.32373047 181.62158203 C49.33999809 172.14485194 46.65581827 162.57290122 44 153 C43.67 153.66 43.34 154.32 43 155 C42.34 155 41.68 155 41 155 C40.72027344 155.58910156 40.44054687 156.17820312 40.15234375 156.78515625 C34.57737602 167.50043321 24.83470811 176.80216864 16.89453125 185.82421875 C14.30258658 188.80094696 11.74252151 191.80406146 9.1875 194.8125 C8.46626953 195.65844727 8.46626953 195.65844727 7.73046875 196.52148438 C5.67255549 198.95064051 3.76835058 201.34747413 2 204 C1.34 204 0.68 204 0 204 C-0.2578125 204.56203125 -0.515625 205.1240625 -0.78125 205.703125 C-2.14169777 208.26704579 -3.72788962 210.45226365 -5.5 212.75 C-6.1084375 213.54921875 -6.716875 214.3484375 -7.34375 215.171875 C-7.8903125 215.77515625 -8.436875 216.3784375 -9 217 C-9.66 217 -10.32 217 -11 217 C-11.2475 217.639375 -11.495 218.27875 -11.75 218.9375 C-13 221 -13 221 -15.125 221.75 C-15.74375 221.8325 -16.3625 221.915 -17 222 C-17.268125 221.360625 -17.53625 220.72125 -17.8125 220.0625 C-18.88667752 217.66868314 -18.88667752 217.66868314 -22 217 C-22.24621094 217.62390625 -22.49242187 218.2478125 -22.74609375 218.890625 C-24.72514582 222.21987148 -27.1363098 222.50704286 -30.7578125 223.45703125 C-42.22622729 225.37764529 -53.76951477 225.07405172 -63.89453125 218.83203125 C-67.53959948 216.09157849 -69.61611017 213.30543504 -71 209 C-71.8433308 201.21220443 -71.07882519 195.23860942 -67.83203125 188.1484375 C-66.65176579 185.10080367 -67.00130857 183.06740941 -68 180 C-68.37125 179.175 -68.7425 178.35 -69.125 177.5 C-70.25605196 174.26842298 -69.83991629 172.28967214 -69 169 C-68.608125 168.319375 -68.21625 167.63875 -67.8125 166.9375 C-66.70760896 164.94098159 -66.70760896 164.94098159 -67.9375 162.6875 C-69.43054156 158.91098312 -69.14189632 156.89588155 -68 153 C-66.27876364 151.07287412 -64.48875449 149.41728237 -62.49609375 147.7734375 C-60.80771186 146.06087735 -60.80771186 146.06087735 -60.5078125 143.55078125 C-61.18221755 140.0556503 -62.69823993 139.02185641 -65.4375 136.8125 C-70.73540013 132.476347 -70.73540013 132.476347 -71.34375 129.08203125 C-71.57239965 125.76089503 -71.6765981 123.09977077 -69.89453125 120.203125 C-68.04109013 118.28103791 -66.09955086 116.65283791 -64 115 C-62.49373047 113.80697266 -62.49373047 113.80697266 -60.95703125 112.58984375 C-58.18648429 110.42441551 -55.38684366 108.29998141 -52.57617188 106.18701172 C-50.32971613 104.49521063 -48.10011709 102.78223919 -45.875 101.0625 C-45.19179687 100.53785156 -44.50859375 100.01320313 -43.8046875 99.47265625 C-41.96610585 98.0340141 -41.96610585 98.0340141 -40.3828125 96.30859375 C-39 95 -39 95 -37 95 C-36.566875 94.12988281 -36.566875 94.12988281 -36.125 93.2421875 C-35.43343259 91.86385523 -34.72805371 90.49222528 -34 89.1328125 C-31.73323848 84.58158038 -30.6946276 80.5568981 -30.125 75.5 C-28.56849101 62.93964921 -23.57965752 51.71786499 -17.77734375 40.5703125 C-15.8671542 36.73314053 -14.22231489 32.84942492 -12.625 28.875 C-8.70299574 19.11651774 -4.35206136 9.574535 0 0 Z M2 11 C1.73372803 11.74870361 1.46745605 12.49740723 1.19311523 13.26879883 C-0.05766932 16.78375373 -1.3098166 20.29822152 -2.5625 23.8125 C-2.90272186 24.76746872 -2.90272186 24.76746872 -3.24981689 25.74172974 C-5.7935114 32.87844972 -8.35537188 40.00691848 -11.00488281 47.10522461 C-15.41097804 58.91538952 -19.00803357 70.0342923 -20.51953125 82.6171875 C-22.68757283 97.88161033 -34.54343248 106.96229948 -46.1875 115.75 C-50.4288921 118.87494825 -54.69328599 121.96572422 -59 125 C-58.41636702 128.62338806 -56.98826783 130.41616598 -54.5 133.0625 C-50.58789955 137.23914823 -49.68952021 140.19245251 -49.78515625 146.015625 C-50.1749811 149.61618903 -52.01375951 151.87940211 -54.34765625 154.53125 C-55.6184978 155.97554903 -56.81434112 157.48499143 -58 159 C-57.67 159.99 -57.34 160.98 -57 162 C-56.01 162 -55.02 162 -54 162 C-54 162.66 -54 163.32 -54 164 C-53.43410156 164.26554688 -52.86820313 164.53109375 -52.28515625 164.8046875 C-51.55167969 165.15789062 -50.81820312 165.51109375 -50.0625 165.875 C-49.33160156 166.22304688 -48.60070312 166.57109375 -47.84765625 166.9296875 C-46 168 -46 168 -45 170 C-45.825 169.938125 -46.65 169.87625 -47.5 169.8125 C-51.88193696 170.04724662 -54.95495082 171.32618654 -59 173 C-58.649375 174.11375 -58.29875 175.2275 -57.9375 176.375 C-56.38114335 182.65601077 -56.8879751 188.55354522 -59.5625 194.4375 C-61.5363487 199.32921199 -62.00336845 203.79853794 -61 209 C-59.00787217 211.93983913 -56.5089015 213.52480403 -53.08984375 214.6015625 C-45.04830145 216.13471636 -37.08967266 215.1601861 -30.09375 210.81640625 C-22.4950655 204.93409128 -18.81367654 195.7370628 -14.69140625 187.3203125 C-12.41860809 182.85869948 -9.93080679 178.53212356 -7.44458008 174.18701172 C-5.24695947 170.31421168 -3.19637607 166.41480433 -1.28051758 162.39575195 C2.50548074 154.46955164 6.9165861 147.01595932 11.5625 139.5625 C12.18785645 138.55574219 12.81321289 137.54898438 13.45751953 136.51171875 C18.07371475 129.19758963 23.08571331 122.36967361 28.72265625 115.8125 C29.49480469 114.884375 30.26695312 113.95625 31.0625 113 C31.85785156 112.071875 32.65320313 111.14375 33.47265625 110.1875 C35.68726473 105.56570839 34.5561778 102.72174794 33 98 C32.58874878 96.71657715 32.58874878 96.71657715 32.16918945 95.40722656 C31.19188209 92.46561778 30.16371686 89.5454768 29.125 86.625 C28.31440761 84.31534851 27.50455199 82.00543836 26.6953125 79.6953125 C26.2612207 78.45942383 25.82712891 77.22353516 25.37988281 75.95019531 C23.14204462 69.55975034 20.95802489 63.1507298 18.76739502 56.74398804 C13.54852133 41.48315127 8.2894205 26.23653732 3 11 C2.67 11 2.34 11 2 11 Z " fill="#E5A37E" transform="translate(237,138)"/>
<path d="M0 0 C7.26 0 14.52 0 22 0 C26.0416668 9.44336217 29.66134141 19.00322595 33.19384766 28.64624023 C34.12749991 31.19432264 35.06539776 33.74081212 36.00390625 36.28710938 C36.60962392 37.93480435 37.21510103 39.58258778 37.8203125 41.23046875 C38.23290817 42.35112984 38.23290817 42.35112984 38.65383911 43.49443054 C44.28749645 58.89267116 44.28749645 58.89267116 44.5625 64.375 C44.74955434 67.94603733 44.92251401 68.88377101 47 72 C47.125 74.6875 47.125 74.6875 47 77 C45.02 76.01 45.02 76.01 43 75 C43 74.34 43 73.68 43 73 C39.55484102 73.37489535 36.28038042 73.85899812 33 75 C30.77674321 77.93662672 30.77674321 77.93662672 30 81 C29.34 80.67 28.68 80.34 28 80 C28 78.68 28 77.36 28 76 C27.34 75.67 26.68 75.34 26 75 C25.67 74.67 25.34 74.34 25 74 C25.061875 72.948125 25.12375 71.89625 25.1875 70.8125 C24.96503181 66.28898006 23.78456616 64.50059745 21 61 C20.49984375 60.56204102 19.9996875 60.12408203 19.484375 59.67285156 C17.50478532 57.44190609 16.92907081 55.33234323 16.0625 52.484375 C15.72476563 51.39769531 15.38703125 50.31101563 15.0390625 49.19140625 C14.69617188 48.05574219 14.35328125 46.92007813 14 45.75 C11.93624575 39.00788555 9.87545841 32.43940685 7 26 C6.24558538 23.86291243 5.51463548 21.71732957 4.8125 19.5625 C4.46832031 18.51191406 4.12414062 17.46132812 3.76953125 16.37890625 C3.51558594 15.59386719 3.26164062 14.80882812 3 14 C0.7784013 16.2215987 0.29267631 17.61200644 -0.69921875 20.55859375 C-1.01793945 21.49268066 -1.33666016 22.42676758 -1.66503906 23.38916016 C-2.00245117 24.3951123 -2.33986328 25.40106445 -2.6875 26.4375 C-3.40340181 28.53828793 -4.12087417 30.63854125 -4.83984375 32.73828125 C-5.20062012 33.79225098 -5.56139648 34.8462207 -5.93310547 35.93212891 C-7.47135589 40.35539086 -9.10697531 44.73984552 -10.75 49.125 C-14.88301953 60.28830652 -18.09325085 70.74370793 -19.51953125 82.6171875 C-21.31839408 95.28235183 -30.14245717 104.63444632 -40.0078125 112.16796875 C-41.37588754 113.18034428 -42.74831415 114.18686539 -44.125 115.1875 C-45.5031178 116.20112496 -46.88073372 117.21543267 -48.2578125 118.23046875 C-49.22315918 118.93695557 -49.22315918 118.93695557 -50.20800781 119.65771484 C-51.79622291 120.84736152 -53.33594178 122.10115092 -54.8671875 123.36328125 C-57 125 -57 125 -59 125 C-56.86319737 128.9174715 -54.28868818 132.07064633 -51.3046875 135.3515625 C-48.38059613 139.04607315 -48.51323379 143.50405027 -49 148 C-50.4370351 151.17660392 -52.43256145 153.51132122 -54.6875 156.125 C-57.31337932 158.77467039 -57.31337932 158.77467039 -57 162 C-56.01 162 -55.02 162 -54 162 C-54 162.66 -54 163.32 -54 164 C-52.88625 164.1546875 -52.88625 164.1546875 -51.75 164.3125 C-48.8026481 165.04933797 -47.21616926 165.94799142 -45 168 C-45 168.66 -45 169.32 -45 170 C-49.62 170.99 -54.24 171.98 -59 173 C-58.484375 174.11375 -57.96875 175.2275 -57.4375 176.375 C-55.10733166 182.6145503 -55.83735688 188.44218514 -58.5625 194.4375 C-60.53148582 199.3171605 -60.88916084 203.80499545 -60 209 C-56.771132 212.76701267 -53.54999536 213.77098487 -48.73828125 214.203125 C-42.57071848 214.32230496 -37.69328722 213.33193683 -32 211 C-31.30132812 210.71382812 -30.60265625 210.42765625 -29.8828125 210.1328125 C-28.24626827 209.44270349 -26.62159381 208.72454191 -25 208 C-24.86495862 209.93559313 -24.76798871 211.873872 -24.6875 213.8125 C-24.62949219 214.89144531 -24.57148438 215.97039062 -24.51171875 217.08203125 C-25 220 -25 220 -27.26953125 221.82421875 C-36.1014274 225.62736716 -48.11873785 225.41036917 -57.1875 222.3125 C-62.6301759 219.95868721 -66.28246193 217.29005076 -69.875 212.5 C-72.62914028 203.93156356 -71.50989133 196.1799482 -67.83203125 188.1484375 C-66.65176579 185.10080367 -67.00130857 183.06740941 -68 180 C-68.37125 179.175 -68.7425 178.35 -69.125 177.5 C-70.25605196 174.26842298 -69.83991629 172.28967214 -69 169 C-68.608125 168.319375 -68.21625 167.63875 -67.8125 166.9375 C-66.70760896 164.94098159 -66.70760896 164.94098159 -67.9375 162.6875 C-69.43054156 158.91098312 -69.14189632 156.89588155 -68 153 C-66.27876364 151.07287412 -64.48875449 149.41728237 -62.49609375 147.7734375 C-60.80771186 146.06087735 -60.80771186 146.06087735 -60.5078125 143.55078125 C-61.18221755 140.0556503 -62.69823993 139.02185641 -65.4375 136.8125 C-70.73540013 132.476347 -70.73540013 132.476347 -71.34375 129.08203125 C-71.57239965 125.76089503 -71.6765981 123.09977077 -69.89453125 120.203125 C-68.04109013 118.28103791 -66.09955086 116.65283791 -64 115 C-62.49373047 113.80697266 -62.49373047 113.80697266 -60.95703125 112.58984375 C-58.18648429 110.42441551 -55.38684366 108.29998141 -52.57617188 106.18701172 C-50.32971613 104.49521063 -48.10011709 102.78223919 -45.875 101.0625 C-45.19179687 100.53785156 -44.50859375 100.01320313 -43.8046875 99.47265625 C-41.96610585 98.0340141 -41.96610585 98.0340141 -40.3828125 96.30859375 C-39 95 -39 95 -37 95 C-36.566875 94.12988281 -36.566875 94.12988281 -36.125 93.2421875 C-35.43343259 91.86385523 -34.72805371 90.49222528 -34 89.1328125 C-31.73323848 84.58158038 -30.6946276 80.5568981 -30.125 75.5 C-28.56849101 62.93964921 -23.57965752 51.71786499 -17.77734375 40.5703125 C-15.8671542 36.73314053 -14.22231489 32.84942492 -12.625 28.875 C-8.70299574 19.11651774 -4.35206136 9.574535 0 0 Z " fill="#B29872" transform="translate(237,138)"/>
<path d="M0 0 C0.99 0.33 1.98 0.66 3 1 C4.12253577 4.47524774 4.51601432 7.36896345 4 11 C1.77900863 14.39807384 -0.72318916 17.24611782 -3.47265625 20.21484375 C-6.29380753 23.32377863 -8.13519574 26.27039148 -10 30 C-8.39459585 28.08435828 -6.790645 26.16753088 -5.1875 24.25 C-4.73568359 23.71117187 -4.28386719 23.17234375 -3.81835938 22.6171875 C-1.90390989 20.32543775 -0.03145802 18.04425818 1.69921875 15.609375 C2.12847656 15.07828125 2.55773437 14.5471875 3 14 C3.66 14 4.32 14 5 14 C5.09796875 14.65742188 5.1959375 15.31484375 5.296875 15.9921875 C6.44615221 23.30396835 7.9500572 30.48562164 9.67871094 37.67919922 C10.64997668 41.85160263 11.39452167 45.68571463 11 50 C10.34 50.99 9.68 51.98 9 53 C8.34 53 7.68 53 7 53 C6.72027344 53.58910156 6.44054687 54.17820312 6.15234375 54.78515625 C0.57737602 65.50043321 -9.16529189 74.80216864 -17.10546875 83.82421875 C-19.69741342 86.80094696 -22.25747849 89.80406146 -24.8125 92.8125 C-25.53373047 93.65844727 -25.53373047 93.65844727 -26.26953125 94.52148438 C-28.32744451 96.95064051 -30.23164942 99.34747413 -32 102 C-32.66 102 -33.32 102 -34 102 C-34.2578125 102.56203125 -34.515625 103.1240625 -34.78125 103.703125 C-36.14169777 106.26704579 -37.72788962 108.45226365 -39.5 110.75 C-40.1084375 111.54921875 -40.716875 112.3484375 -41.34375 113.171875 C-41.8903125 113.77515625 -42.436875 114.3784375 -43 115 C-43.66 115 -44.32 115 -45 115 C-45.2475 115.639375 -45.495 116.27875 -45.75 116.9375 C-47 119 -47 119 -49.125 119.75 C-49.74375 119.8325 -50.3625 119.915 -51 120 C-51.268125 119.360625 -51.53625 118.72125 -51.8125 118.0625 C-52.88667752 115.66868314 -52.88667752 115.66868314 -56 115 C-56.66 116.32 -57.32 117.64 -58 119 C-58.66 118.67 -59.32 118.34 -60 118 C-60 114.37 -60 110.74 -60 107 C-60.66 106.67 -61.32 106.34 -62 106 C-61.46375 105.401875 -60.9275 104.80375 -60.375 104.1875 C-54.62927629 96.47613397 -50.61041049 87.39555322 -46.1875 78.875 C-45.12508201 76.83980094 -44.06258149 74.80464495 -43 72.76953125 C-41.23275529 69.37954398 -39.47896954 65.98386702 -37.75 62.57421875 C-33.34940143 53.96754607 -28.47763732 45.71054488 -23.375 37.5 C-22.75326904 36.49654541 -22.13153809 35.49309082 -21.4909668 34.45922852 C-17.64722137 28.35110093 -13.53712972 22.6095422 -9 17 C-7.34187782 14.92560311 -5.69862583 12.84200363 -4.0625 10.75 C-3.29035156 9.77546875 -2.51820313 8.8009375 -1.72265625 7.796875 C0.10545836 4.82877963 0.4042438 3.40808619 0 0 Z " fill="#FCFCFB" transform="translate(271,240)"/>
<path d="M0 0 C7.26 0 14.52 0 22 0 C26.0416668 9.44336217 29.66134141 19.00322595 33.19384766 28.64624023 C34.12749991 31.19432264 35.06539776 33.74081212 36.00390625 36.28710938 C36.60962392 37.93480435 37.21510103 39.58258778 37.8203125 41.23046875 C38.23290817 42.35112984 38.23290817 42.35112984 38.65383911 43.49443054 C44.28749645 58.89267116 44.28749645 58.89267116 44.5625 64.375 C44.74955434 67.94603733 44.92251401 68.88377101 47 72 C47.125 74.6875 47.125 74.6875 47 77 C45.68 76.34 44.36 75.68 43 75 C43 74.34 43 73.68 43 73 C39.55484102 73.37489535 36.28038042 73.85899812 33 75 C30.77674321 77.93662672 30.77674321 77.93662672 30 81 C29.34 80.67 28.68 80.34 28 80 C28 78.68 28 77.36 28 76 C27.34 75.67 26.68 75.34 26 75 C25.505 74.505 25.505 74.505 25 74 C25.061875 72.948125 25.12375 71.89625 25.1875 70.8125 C24.96503181 66.28898006 23.78456616 64.50059745 21 61 C20.24976563 60.34306152 20.24976563 60.34306152 19.484375 59.67285156 C17.50478532 57.44190609 16.92907081 55.33234323 16.0625 52.484375 C15.72476563 51.39769531 15.38703125 50.31101563 15.0390625 49.19140625 C14.69617188 48.05574219 14.35328125 46.92007813 14 45.75 C11.53945443 37.37184883 11.53945443 37.37184883 8.41796875 29.23046875 C6.74267229 25.4137465 5.51908861 21.54679411 4.3125 17.5625 C4.08755859 16.83095703 3.86261719 16.09941406 3.63085938 15.34570312 C3.08380134 13.56485464 2.54140628 11.78257483 2 10 C1.34 11.65 0.68 13.3 0 15 C-2 13 -2 13 -2.265625 10.9765625 C-2.26046875 10.20054687 -2.2553125 9.42453125 -2.25 8.625 C-2.25515625 7.85414063 -2.2603125 7.08328125 -2.265625 6.2890625 C-2 4 -2 4 0 0 Z " fill="#B1946A" transform="translate(237,138)"/>
<path d="M0 0 C-0.165 0.5775 -0.33 1.155 -0.5 1.75 C-1.14462031 4.26664369 -1.14462031 4.26664369 -1 8 C-0.38125 7.2265625 -0.38125 7.2265625 0.25 6.4375 C0.8275 5.963125 1.405 5.48875 2 5 C4.1875 5.3125 4.1875 5.3125 6 6 C5.41857465 9.99218113 3.3857923 12.25506587 0.8828125 15.33984375 C-4.26004368 21.92689337 -7.68668183 28.98495291 -11.125 36.5625 C-14.80597189 44.59646675 -18.58934623 52.34310007 -23.51513672 59.71069336 C-24.84355071 61.75879234 -25.95997252 63.79462142 -27 66 C-27.29245605 65.11739502 -27.58491211 64.23479004 -27.88623047 63.32543945 C-28.97713152 60.03564365 -30.06940499 56.74631007 -31.16259766 53.45727539 C-31.63449883 52.03655853 -32.10586015 50.61566223 -32.57666016 49.19458008 C-33.25539884 47.14616681 -33.9361081 45.09841726 -34.6171875 43.05078125 C-35.02565918 41.82012939 -35.43413086 40.58947754 -35.85498047 39.3215332 C-36.82518166 36.50712229 -37.86329213 33.75046783 -39 31 C-38.01 31 -37.02 31 -36 31 C-36 30.34 -36 29.68 -36 29 C-35.34 29 -34.68 29 -34 29 C-34 28.34 -34 27.68 -34 27 C-33.34 27 -32.68 27 -32 27 C-31.74863281 26.41992188 -31.49726563 25.83984375 -31.23828125 25.2421875 C-29.8455535 22.72033978 -28.27063548 21.10855921 -26.1875 19.125 C-23.66605115 16.68134539 -21.30817173 14.25014469 -19.125 11.5 C-18.42375 10.675 -17.7225 9.85 -17 9 C-16.34 9 -15.68 9 -15 9 C-14.76023437 8.39671875 -14.52046875 7.7934375 -14.2734375 7.171875 C-12.72325387 4.52800354 -11.30623846 3.69305857 -8.625 2.25 C-7.46871094 1.60804688 -7.46871094 1.60804688 -6.2890625 0.953125 C-4 0 -4 0 0 0 Z " fill="#FCFCFB" transform="translate(334,187)"/>
<path d="M0 0 C1.53445094 3.06890187 0.54984289 5.70094266 0 9 C1.32 9 2.64 9 4 9 C4 10.32 4 11.64 4 13 C4.99 12.67 5.98 12.34 7 12 C7.66 12.66 8.32 13.32 9 14 C9.99 13.01 10.98 12.02 12 11 C11.01 10.67 10.02 10.34 9 10 C7.8125 6.9375 7.8125 6.9375 7 4 C8.75 2.4375 8.75 2.4375 11 1 C13.25 1.3125 13.25 1.3125 15 2 C13.02 2.99 13.02 2.99 11 4 C13.13680263 7.9174715 15.71131182 11.07064633 18.6953125 14.3515625 C21.61940387 18.04607315 21.48676621 22.50405027 21 27 C19.5629649 30.17660392 17.56743855 32.51132122 15.3125 35.125 C12.68662068 37.77467039 12.68662068 37.77467039 13 41 C13.99 41 14.98 41 16 41 C16 41.66 16 42.32 16 43 C16.7425 43.103125 17.485 43.20625 18.25 43.3125 C21.1973519 44.04933797 22.78383074 44.94799142 25 47 C25 47.66 25 48.32 25 49 C22.125 49.125 22.125 49.125 19 49 C18.34 48.34 17.68 47.68 17 47 C17 46.01 17 45.02 17 44 C14.69 43.67 12.38 43.34 10 43 C10 41.02 10 39.04 10 37 C8.35 36.34 6.7 35.68 5 35 C5.02320313 35.75925781 5.04640625 36.51851563 5.0703125 37.30078125 C5.08835938 38.29464844 5.10640625 39.28851563 5.125 40.3125 C5.14820313 41.29863281 5.17140625 42.28476562 5.1953125 43.30078125 C5 46 5 46 3 49 C2.92094936 51.33199388 2.91201231 53.66832622 3 56 C3.66 56 4.32 56 5 56 C6.53166168 60.08443115 5.63081652 63.79455657 5 68 C3.515 68.495 3.515 68.495 2 69 C2.226875 67.824375 2.45375 66.64875 2.6875 65.4375 C3.28696289 60.90556058 1.84732462 58.15648039 0 54 C0.18834961 50.7980566 0.58991449 48.71225378 2.1875 45.9375 C3.29239104 43.94098159 3.29239104 43.94098159 2.0625 41.6875 C0.56945844 37.91098312 0.85810368 35.89588155 2 32 C3.72123636 30.07287412 5.51124551 28.41728237 7.50390625 26.7734375 C9.19228814 25.06087735 9.19228814 25.06087735 9.4921875 22.55078125 C8.81778245 19.0556503 7.30176007 18.02185641 4.5625 15.8125 C0.06622517 12.13245033 0.06622517 12.13245033 -1 10 C-1.09472912 8.48154798 -1.1298841 6.95889616 -1.125 5.4375 C-1.12886719 4.22900391 -1.12886719 4.22900391 -1.1328125 2.99609375 C-1 1 -1 1 0 0 Z " fill="#AE9369" transform="translate(167,259)"/>
<path d="M0 0 C2.32490736 2.1068454 3.58024154 3.89240796 4.71875 6.80859375 C5.00983643 7.55052979 5.30092285 8.29246582 5.60083008 9.05688477 C6.04591919 10.23528931 6.04591919 10.23528931 6.5 11.4375 C6.80897217 12.23921631 7.11794434 13.04093262 7.4362793 13.86694336 C9.54653825 19.46347342 11.19520854 25.04232905 12.39453125 30.91015625 C12.59433594 31.59980469 12.79414063 32.28945313 13 33 C13.66 33.33 14.32 33.66 15 34 C15 34.66 15 35.32 15 36 C18.3 36 21.6 36 25 36 C25 35.34 25 34.68 25 34 C25.66 34 26.32 34 27 34 C27.495 35.98 27.495 35.98 28 38 C17.77 38 7.54 38 -3 38 C-7.5 26.75 -7.5 26.75 -7 22 C-6.34 22 -5.68 22 -5 22 C-5 21.34 -5 20.68 -5 20 C-3.68 20 -2.36 20 -1 20 C-0.83060951 17.79187393 -0.66460778 15.58348776 -0.5 13.375 C-0.4071875 12.14523437 -0.314375 10.91546875 -0.21875 9.6484375 C-0.02515931 6.41962143 0.03979339 3.23321325 0 0 Z " fill="#B79974" transform="translate(313,315)"/>
<path d="M0 0 C0.33 0 0.66 0 1 0 C1.061875 1.2375 1.12375 2.475 1.1875 3.75 C1.60657863 7.13256322 1.85075025 7.84268269 4.3125 10.4375 C10.08707314 13.79480996 16.96788411 13.94911819 23.40625 12.43359375 C25.64561965 11.70119717 27.81991148 10.89295139 30 10 C31.04800781 9.57074219 31.04800781 9.57074219 32.1171875 9.1328125 C33.75373173 8.44270349 35.37840619 7.72454191 37 7 C37.13504138 8.93559313 37.23201129 10.873872 37.3125 12.8125 C37.37050781 13.89144531 37.42851562 14.97039062 37.48828125 16.08203125 C37 19 37 19 34.73046875 20.82421875 C25.8985726 24.62736716 13.88126215 24.41036917 4.8125 21.3125 C-0.73140318 18.93654149 -4.61810577 16.07284134 -8 11 C-7.67 10.01 -7.34 9.02 -7 8 C-6.34 8.66 -5.68 9.32 -5 10 C-4.34 10 -3.68 10 -3 10 C-3 10.66 -3 11.32 -3 12 C-2.34 12 -1.68 12 -1 12 C-1 12.99 -1 13.98 -1 15 C-0.34 14.67 0.32 14.34 1 14 C1.33 13.01 1.66 12.02 2 11 C1.34 11 0.68 11 0 11 C-1.35015859 6.94952424 -0.62084998 4.2079832 0 0 Z " fill="#C0AC8F" transform="translate(175,339)"/>
<path d="M0 0 C0.66 0.33 1.32 0.66 2 1 C2.4140625 3.06640625 2.4140625 3.06640625 2.625 5.5625 C2.69976562 6.38878906 2.77453125 7.21507812 2.8515625 8.06640625 C2.90054688 8.70449219 2.94953125 9.34257812 3 10 C-3.74699625 14.4979975 -13.18518717 13.33379854 -21 13 C-21.99 12.67 -22.98 12.34 -24 12 C-24.33 10.02 -24.66 8.04 -25 6 C-23.38931641 5.92652344 -23.38931641 5.92652344 -21.74609375 5.8515625 C-20.30987358 5.77646602 -18.87367681 5.70092124 -17.4375 5.625 C-16.73302734 5.5940625 -16.02855469 5.563125 -15.30273438 5.53125 C-10.63480133 5.27311545 -6.4242543 4.64026578 -2 3 C-1.34 2.01 -0.68 1.02 0 0 Z " fill="#B0966C" transform="translate(209,348)"/>
<path d="M0 0 C3.00203413 3.00203413 2.91692283 6.70049705 3.5 10.75 C4.27967641 16.06208103 5.25927449 20.90416645 7 26 C7.5674813 29.31818927 8.00180457 32.63882431 8.4375 35.9765625 C8.84392885 38.93862301 8.84392885 38.93862301 10.0859375 41.1640625 C11.57038792 44.14565095 10.60868467 46.83483973 10 50 C10.99 50.33 11.98 50.66 13 51 C13 53.97 13 56.94 13 60 C14.32 60.66 15.64 61.32 17 62 C17.65234375 64.86328125 17.65234375 64.86328125 17.9375 68.3125 C18.61195787 73.58495436 18.61195787 73.58495436 21.1875 78.1875 C24.50336533 80.32439099 27.15816718 81.17136939 31 82 C30.34 83.32 29.68 84.64 29 86 C29 85.34 29 84.68 29 84 C27.948125 83.79375 26.89625 83.5875 25.8125 83.375 C22.22714954 82.67199011 20.38566977 80.61804937 18.16674805 77.79296875 C16.13878476 74.6765506 15.08161688 71.34870438 14 67.8125 C13.75217773 67.03366455 13.50435547 66.2548291 13.24902344 65.45239258 C9.54387418 53.60703515 6.16241047 41.71352105 4.53515625 29.390625 C3.73905459 24.34671086 2.54438354 19.39713395 1.32006836 14.44116211 C0.15246936 9.50361767 -0.17204547 5.07534151 0 0 Z " fill="#DFB9A1" transform="translate(276,254)"/>
<path d="M0 0 C1.65 0 3.3 0 5 0 C4.34 1.65 3.68 3.3 3 5 C3.99 5.33 4.98 5.66 6 6 C4.37633534 9.24732932 1.24612161 9.70155136 -2 11 C-1.39816251 13.02045442 -0.72693904 15.02111039 0 17 C0.66 17.33 1.32 17.66 2 18 C1 20 1 20 -2 22 C-3.32 21.34 -4.64 20.68 -6 20 C-6 18.68 -6 17.36 -6 16 C-7.32 16 -8.64 16 -10 16 C-10.48663102 9.67379679 -10.48663102 9.67379679 -8.375 6.75 C-5.71275859 4.78834844 -3.00694593 3.3667936 0 2 C0 1.34 0 0.68 0 0 Z " fill="#AE9167" transform="translate(177,252)"/>
<path d="M0 0 C4.875 4.625 4.875 4.625 6 8 C5.72428861 10.00875442 5.39764263 12.01178687 5 14 C5.66 14.33 6.32 14.66 7 15 C7.72159424 16.64363134 8.39351421 18.31050386 9 20 C9.928125 18.5459375 9.928125 18.5459375 10.875 17.0625 C13 14 13 14 15 13 C17.6723621 12.86584528 20.32250488 12.95681459 23 13 C23 13.33 23 13.66 23 14 C21.906875 14.28875 20.81375 14.5775 19.6875 14.875 C15.95986155 15.81893204 15.95986155 15.81893204 13 18 C11.84199475 23.43371696 11.93125928 25.87813637 14 31 C14.2759478 32.92903132 14.48449903 34.8689032 14.625 36.8125 C14.69976562 37.78832031 14.77453125 38.76414063 14.8515625 39.76953125 C14.92503906 40.87361328 14.92503906 40.87361328 15 42 C14.34 42 13.68 42 13 42 C12.71278076 41.13310547 12.42556152 40.26621094 12.12963867 39.37304688 C11.0517778 36.1223071 9.97251515 32.87203948 8.89233398 29.62207031 C8.42726289 28.2218632 7.96273301 26.82147619 7.4987793 25.42089844 C6.82747218 23.39469267 6.15444979 21.36906781 5.48046875 19.34375 C5.26357391 18.69075928 5.04667908 18.03776855 4.82321167 17.36499023 C3.68723213 13.96862274 2.48989388 10.61249847 1.17578125 7.28125 C0 4 0 4 0 0 Z " fill="#D7A17B" transform="translate(257,198)"/>
<path d="M0 0 C1.4606285 2.64738916 2 3.89448334 2 7 C2.99 5.35 3.98 3.7 5 2 C6 4 6 4 5.22729492 6.70214844 C4.81584229 7.8265332 4.40438965 8.95091797 3.98046875 10.109375 C3.53509766 11.33914062 3.08972656 12.56890625 2.63085938 13.8359375 C2.14998781 15.14071651 1.66886575 16.44540323 1.1875 17.75 C0.71738779 19.03880331 0.24797837 20.32786321 -0.22070312 21.6171875 C-1.08978891 24.00623824 -1.9622498 26.3940657 -2.83911133 28.78027344 C-3.9419103 31.83888812 -4.98562513 34.91107244 -6 38 C-6.33 38 -6.66 38 -7 38 C-7 35.69 -7 33.38 -7 31 C-6.34 31 -5.68 31 -5 31 C-5 29.35 -5 27.7 -5 26 C-4.34 26 -3.68 26 -3 26 C-3.020625 24.9275 -3.04125 23.855 -3.0625 22.75 C-3.0142016 19.85209576 -2.86844115 17.71387859 -2 15 C-2.66 15 -3.32 15 -4 15 C-4 16.65 -4 18.3 -4 20 C-5.32 20 -6.64 20 -8 20 C-5.83836487 13.06001352 -3.1063786 6.56882431 0 0 Z " fill="#BFAC8F" transform="translate(234,145)"/>
<path d="M0 0 C0.66 0.33 1.32 0.66 2 1 C2 2.98 2 4.96 2 7 C1.34 7 0.68 7 0 7 C-0.66 8.32 -1.32 9.64 -2 11 C-2.66 10.67 -3.32 10.34 -4 10 C-3.97679687 10.75925781 -3.95359375 11.51851563 -3.9296875 12.30078125 C-3.91164062 13.29464844 -3.89359375 14.28851563 -3.875 15.3125 C-3.85179687 16.29863281 -3.82859375 17.28476562 -3.8046875 18.30078125 C-4 21 -4 21 -6 24 C-6.07905064 26.33199388 -6.08798769 28.66832622 -6 31 C-5.34 31 -4.68 31 -4 31 C-2.46833832 35.08443115 -3.36918348 38.79455657 -4 43 C-5.485 43.495 -5.485 43.495 -7 44 C-6.6596875 42.2365625 -6.6596875 42.2365625 -6.3125 40.4375 C-5.71303711 35.90556058 -7.15267538 33.15648039 -9 29 C-8.81165039 25.7980566 -8.41008551 23.71225378 -6.8125 20.9375 C-5.70760896 18.94098159 -5.70760896 18.94098159 -6.9375 16.6875 C-8.43054156 12.91098312 -8.14189632 10.89588155 -7 7 C-4.88377142 4.40281038 -2.53839056 2.18049737 0 0 Z " fill="#C1B197" transform="translate(176,284)"/>
<path d="M0 0 C0.66 0.33 1.32 0.66 2 1 C1.43410156 1.62648437 0.86820313 2.25296875 0.28515625 2.8984375 C-0.44832031 3.71570313 -1.18179688 4.53296875 -1.9375 5.375 C-2.66839844 6.18710938 -3.39929688 6.99921875 -4.15234375 7.8359375 C-6.02989471 9.85924167 -6.02989471 9.85924167 -7 12 C-9.2572026 13.48314991 -11.6261783 14.70518817 -14 16 C-13.01 16 -12.02 16 -11 16 C-11 17.65 -11 19.3 -11 21 C-12.216875 20.7525 -13.43375 20.505 -14.6875 20.25 C-18.08188913 19.81451598 -18.67471468 19.77539823 -21.625 21.8125 C-22.800625 22.8953125 -22.800625 22.8953125 -24 24 C-27.3125 25.25 -27.3125 25.25 -30 26 C-26.63306859 21.70404492 -23.15775122 18.30449462 -18.75 15.0625 C-17.60144889 14.1980676 -16.45301197 13.33348345 -15.3046875 12.46875 C-14.74491211 12.05109375 -14.18513672 11.6334375 -13.60839844 11.203125 C-11.34688891 9.51145546 -9.10860101 7.79079455 -6.875 6.0625 C-6.19179687 5.53785156 -5.50859375 5.01320312 -4.8046875 4.47265625 C-3.08674707 3.07078711 -1.53552838 1.59752176 0 0 Z M-18 20 C-16 21 -16 21 -16 21 Z " fill="#AE936E" transform="translate(198,233)"/>
<path d="M0 0 C2.33127764 2.33127764 3.012347 4.21051901 4.20703125 7.27734375 C4.62919922 8.34919922 5.05136719 9.42105469 5.48632812 10.52539062 C5.92396484 11.65138672 6.36160156 12.77738281 6.8125 13.9375 C9.6754999 21.27041805 12.60822177 28.51904812 15.96044922 35.64404297 C17.31516473 38.71426483 18.20417452 41.74435033 19 45 C18.01 45 17.02 45 16 45 C14.68373308 41.38026598 14 38.90432869 14 35 C13.34 35 12.68 35 12 35 C11.87625 34.030625 11.7525 33.06125 11.625 32.0625 C11.41875 31.051875 11.2125 30.04125 11 29 C10.34 28.67 9.68 28.34 9 28 C8.3671875 25.93359375 8.3671875 25.93359375 7.875 23.4375 C7.70742188 22.61121094 7.53984375 21.78492188 7.3671875 20.93359375 C7.24601562 20.29550781 7.12484375 19.65742188 7 19 C6.34 19 5.68 19 5 19 C3.36802042 14.72576777 1.76800338 10.44116628 0.25 6.125 C-0.01296875 5.38507813 -0.2759375 4.64515625 -0.546875 3.8828125 C-1 2 -1 2 0 0 Z " fill="#E1BDA8" transform="translate(312,265)"/>
<path d="M0 0 C7.26 0 14.52 0 22 0 C27.22321429 12.1875 27.22321429 12.1875 28 17 C27.34 16.67 26.68 16.34 26 16 C26 15.01 26 14.02 26 13 C25.01 13 24.02 13 23 13 C22.80083984 12.04287109 22.80083984 12.04287109 22.59765625 11.06640625 C22.33275391 9.82697266 22.33275391 9.82697266 22.0625 8.5625 C21.88847656 7.73878906 21.71445312 6.91507813 21.53515625 6.06640625 C21.19247006 4.02338796 21.19247006 4.02338796 20 3 C17.00820277 2.84672566 14.05543676 2.76834751 11.0625 2.75 C10.22525391 2.729375 9.38800781 2.70875 8.52539062 2.6875 C7.72423828 2.68234375 6.92308594 2.6771875 6.09765625 2.671875 C5.36039307 2.6625293 4.62312988 2.65318359 3.86352539 2.64355469 C3.24856201 2.76118164 2.63359863 2.87880859 2 3 C1.01 4.485 1.01 4.485 0 6 C-0.66 6 -1.32 6 -2 6 C-1.34 4.02 -0.68 2.04 0 0 Z " fill="#BEAD95" transform="translate(237,138)"/>
<path d="M0 0 C0.66 0 1.32 0 2 0 C2 1.32 2 2.64 2 4 C2.64066406 4.19980469 3.28132813 4.39960938 3.94140625 4.60546875 C6 6 6 6 6.65234375 8.86328125 C6.79349609 10.57064453 6.79349609 10.57064453 6.9375 12.3125 C7.61195787 17.58495436 7.61195787 17.58495436 10.1875 22.1875 C13.50336533 24.32439099 16.15816718 25.17136939 20 26 C19.34 27.32 18.68 28.64 18 30 C18 29.34 18 28.68 18 28 C16.948125 27.79375 15.89625 27.5875 14.8125 27.375 C11.2618951 26.67880296 9.39309578 24.66529389 7.1887207 21.86767578 C4.99307046 18.41794805 3.87576097 14.63771401 2.6875 10.75 C2.42388672 9.9353125 2.16027344 9.120625 1.88867188 8.28125 C0 2.35523539 0 2.35523539 0 0 Z " fill="#E8C5B2" transform="translate(287,310)"/>
<path d="M0 0 C-0.2165625 0.8353125 -0.2165625 0.8353125 -0.4375 1.6875 C-1.91753526 6.42442992 -1.91753526 6.42442992 -1 11 C-1.66 11 -2.32 11 -3 11 C-3.103125 11.639375 -3.20625 12.27875 -3.3125 12.9375 C-3.539375 13.618125 -3.76625 14.29875 -4 15 C-4.99 15.33 -5.98 15.66 -7 16 C-6.62875 14.948125 -6.2575 13.89625 -5.875 12.8125 C-4.95723754 8.81367786 -5.08615391 7.50871784 -7 4 C-8.98 4.99 -10.96 5.98 -13 7 C-13 6.34 -13 5.68 -13 5 C-11.58957044 4.15615325 -10.17135868 3.32530504 -8.75 2.5 C-7.56664062 1.80390625 -7.56664062 1.80390625 -6.359375 1.09375 C-4 0 -4 0 0 0 Z " fill="#E9E9E8" transform="translate(334,187)"/>
<path d="M0 0 C0.33 1.32 0.66 2.64 1 4 C0.01 4 -0.98 4 -2 4 C-2.6496875 4.7115625 -2.6496875 4.7115625 -3.3125 5.4375 C-7.25298448 9.08609674 -14.69177227 8.29455348 -19.875 8.5625 C-21.050625 8.62727539 -21.050625 8.62727539 -22.25 8.69335938 C-24.16650649 8.79853351 -26.08323333 8.89967925 -28 9 C-28.33 8.01 -28.66 7.02 -29 6 C-27.64068359 6.05220703 -27.64068359 6.05220703 -26.25390625 6.10546875 C-16.00946385 6.33312303 -8.98282785 4.83690731 0 0 Z " fill="#C1B39D" transform="translate(211,346)"/>
<path d="M0 0 C3.37648395 3.37648395 3.96257793 6.23584126 4.1953125 10.98828125 C4.18214778 12.42981792 4.15848651 13.87129219 4.125 15.3125 C4.11597656 16.05306641 4.10695313 16.79363281 4.09765625 17.55664062 C4.07424213 19.37123467 4.03837615 21.18566071 4 23 C3.34 23.33 2.68 23.66 2 24 C2 23.34 2 22.68 2 22 C1.34 22 0.68 22 0 22 C0 22.66 0 23.32 0 24 C-0.66 24 -1.32 24 -2 24 C-1.505 22.515 -1.505 22.515 -1 21 C-0.34 21 0.32 21 1 21 C1.06058594 20.38511719 1.12117188 19.77023437 1.18359375 19.13671875 C1.30927734 17.92435547 1.30927734 17.92435547 1.4375 16.6875 C1.51871094 15.88699219 1.59992188 15.08648437 1.68359375 14.26171875 C2 12 2 12 3 9 C2.01 8.67 1.02 8.34 0 8 C0 5.36 0 2.72 0 0 Z " fill="#D8B095" transform="translate(338,327)"/>
<path d="M0 0 C1.53445094 3.06890187 0.54984289 5.70094266 0 9 C1.32 9 2.64 9 4 9 C4 10.32 4 11.64 4 13 C4.99 12.67 5.98 12.34 7 12 C9.95047835 16.61012242 11.5497272 19.36529617 11 25 C10.67 25 10.34 25 10 25 C9.835 24.154375 9.67 23.30875 9.5 22.4375 C7.66857979 18.24049535 5.29445969 16.33949385 1.77734375 13.515625 C0 12 0 12 -1 10 C-1.09472912 8.48154798 -1.1298841 6.95889616 -1.125 5.4375 C-1.12886719 4.22900391 -1.12886719 4.22900391 -1.1328125 2.99609375 C-1 1 -1 1 0 0 Z " fill="#BBA88C" transform="translate(167,259)"/>
<path d="M0 0 C0.66 0.33 1.32 0.66 2 1 C2 1.99 2 2.98 2 4 C2.99 4 3.98 4 5 4 C5 4.66 5 5.32 5 6 C5.7425 6.103125 6.485 6.20625 7.25 6.3125 C10.1973519 7.04933797 11.78383074 7.94799142 14 10 C14 10.66 14 11.32 14 12 C11.125 12.125 11.125 12.125 8 12 C7.34 11.34 6.68 10.68 6 10 C6 9.01 6 8.02 6 7 C3.69 6.67 1.38 6.34 -1 6 C-0.67 4.02 -0.34 2.04 0 0 Z " fill="#C2AF97" transform="translate(178,296)"/>
<path d="M0 0 C0.66 0.33 1.32 0.66 2 1 C2.4140625 3.06640625 2.4140625 3.06640625 2.625 5.5625 C2.69976562 6.38878906 2.77453125 7.21507812 2.8515625 8.06640625 C2.90054688 8.70449219 2.94953125 9.34257812 3 10 C-3.85874602 14.57249735 -13.07336682 13.09894549 -21 13 C-21 12.67 -21 12.34 -21 12 C-16.71702469 10.94380997 -12.57014354 10.88297908 -8.1875 10.9375 C-7.49462891 10.94201172 -6.80175781 10.94652344 -6.08789062 10.95117188 C-4.39188932 10.96286844 -2.69593297 10.98080076 -1 11 C-0.83197949 9.54182203 -0.66562857 8.0834516 -0.5 6.625 C-0.36078125 5.40683594 -0.36078125 5.40683594 -0.21875 4.1640625 C0.03352351 2.03087175 0.03352351 2.03087175 0 0 Z " fill="#AB9874" transform="translate(209,348)"/>
<path d="M0 0 C4.875 4.625 4.875 4.625 6 8 C5.72428861 10.00875442 5.39764263 12.01178687 5 14 C5.66 14.33 6.32 14.66 7 15 C8 16 8 16 8.09765625 17.84765625 C8.04882812 20.92382812 8.04882812 20.92382812 8 24 C5.56762847 20.3514427 4.31968809 16.67882421 2.875 12.5625 C2.59785156 11.79873047 2.32070313 11.03496094 2.03515625 10.24804688 C1.77347656 9.50748047 1.51179688 8.76691406 1.2421875 8.00390625 C1.0035498 7.33174072 0.76491211 6.6595752 0.51904297 5.96704102 C0 4 0 4 0 0 Z " fill="#CABBA6" transform="translate(257,198)"/>
<path d="M0 0 C1.68954408 3.10729193 2.63862941 6.17473184 3.625 9.5625 C4.9928333 13.599679 4.9928333 13.599679 8.0390625 16.3828125 C10.46769325 17.32317954 10.46769325 17.32317954 14 18 C13.67 18.66 13.34 19.32 13 20 C11.53775201 19.57576756 10.08026588 19.13509755 8.625 18.6875 C7.81289063 18.44386719 7.00078125 18.20023438 6.1640625 17.94921875 C4 17 4 17 2 14 C1.64386903 12.33805547 1.30791692 10.671549 1 9 C0.67 8.67 0.34 8.34 0 8 C-0.14115161 5.32941149 -0.04247107 2.67567762 0 0 Z " fill="#CBB69E" transform="translate(281,199)"/>
<path d="M0 0 C1.91716824 4.7929206 -0.29893383 9.1854758 -2.0625 13.75 C-3.41394912 18.43502363 -3.67200606 23.14914229 -4 28 C-4.66 28 -5.32 28 -6 28 C-6.68074529 18.1291933 -3.7797415 9.05775891 0 0 Z " fill="#C4B49D" transform="translate(213,192)"/>
<path d="M0 0 C1.34484451 2.68968903 0.62094799 4.1022427 0 7 C0 8.32 0 9.64 0 11 C0.66 11 1.32 11 2 11 C3.53166168 15.08443115 2.63081652 18.79455657 2 23 C1.01 23.33 0.02 23.66 -1 24 C-0.773125 22.824375 -0.54625 21.64875 -0.3125 20.4375 C0.28696289 15.90556058 -1.15267538 13.15648039 -3 9 C-2.77137913 5.03723828 -2.21666876 3.32500313 0 0 Z " fill="#CCBEA8" transform="translate(170,304)"/>
<path d="M0 0 C3.47926048 4.15448084 4.03577472 7.66956617 4 13 C3.54649405 15.4852126 2.86376128 17.6119541 2 20 C1.01 19.01 0.02 18.02 -1 17 C-0.67 16.67 -0.34 16.34 0 16 C0.07319621 13.30345146 0.09242537 10.63308542 0.0625 7.9375 C0.05798828 7.17888672 0.05347656 6.42027344 0.04882812 5.63867188 C0.0370068 3.75908129 0.01907078 1.87953101 0 0 Z " fill="#BFAB91" transform="translate(177,311)"/>
<path d="M0 0 C1.47070615 4.54307174 0.02965789 7.85611514 -2 12 C-3.53923096 14.49186476 -5.17513929 16.69491279 -7 19 C-7.33 19 -7.66 19 -8 19 C-8.1875 16.6875 -8.1875 16.6875 -8 14 C-7 13 -6 12 -5 11 C-4.01371583 8.96922316 -4.01371583 8.96922316 -3.3125 6.8125 C-3.06113281 6.09707031 -2.80976563 5.38164062 -2.55078125 4.64453125 C-2.36902344 4.10183594 -2.18726563 3.55914062 -2 3 C-1.34 3 -0.68 3 0 3 C0 2.01 0 1.02 0 0 Z " fill="#C0AE96" transform="translate(216,220)"/>
<path d="M0 0 C0.66 0.99 1.32 1.98 2 3 C1.27167969 3.70640625 0.54335938 4.4128125 -0.20703125 5.140625 C-3.75808953 8.77611404 -6.85084082 12.69819989 -10.01171875 16.671875 C-12 19 -12 19 -14 20 C-12.6251276 16.03129615 -10.79752511 13.22720013 -8.125 10 C-7.44695312 9.175 -6.76890625 8.35 -6.0703125 7.5 C-5.04550781 6.2625 -5.04550781 6.2625 -4 5 C-2.66384945 3.33559101 -1.32969433 1.66957136 0 0 Z " fill="#D2CFC9" transform="translate(274,251)"/>
<path d="M0 0 C0.99 0.33 1.98 0.66 3 1 C2.67 2.98 2.34 4.96 2 7 C3.65 7 5.3 7 7 7 C7.33 8.65 7.66 10.3 8 12 C6.35 11.01 4.7 10.02 3 9 C2.34 10.32 1.68 11.64 1 13 C0.34 12.67 -0.32 12.34 -1 12 C-1.14285714 3.42857143 -1.14285714 3.42857143 0 0 Z " fill="#E7E1D9" transform="translate(212,346)"/>
<path d="M0 0 C0.33 0 0.66 0 1 0 C1.44365036 8.72512369 1.44365036 8.72512369 -2 13 C-4.6875 15.3125 -4.6875 15.3125 -7 17 C-6.67 15.68 -6.34 14.36 -6 13 C-5.34 13 -4.68 13 -4 13 C-4.061875 11.824375 -4.061875 11.824375 -4.125 10.625 C-4 8 -4 8 -2 6 C-1.28591666 4.01643517 -0.61382258 2.01684563 0 0 Z " fill="#BEB095" transform="translate(187,278)"/>
<path d="M0 0 C2.19759555 3.29639333 3.34225802 6.58659793 4.5625 10.3125 C4.78357422 10.96412109 5.00464844 11.61574219 5.23242188 12.28710938 C6.51883387 16.16966402 7.44106218 19.94927085 8 24 C7.34 24 6.68 24 6 24 C5.67 21.69 5.34 19.38 5 17 C4.34 17 3.68 17 3 17 C2.80083984 16.04287109 2.80083984 16.04287109 2.59765625 15.06640625 C2.42105469 14.24011719 2.24445313 13.41382813 2.0625 12.5625 C1.88847656 11.73878906 1.71445312 10.91507813 1.53515625 10.06640625 C1.19247006 8.02338796 1.19247006 8.02338796 0 7 C-0.04092937 4.66702567 -0.04241723 2.33294775 0 0 Z " fill="#DCAE96" transform="translate(298,226)"/>
<path d="M0 0 C0.33 0 0.66 0 1 0 C1 3.33333333 1 6.66666667 1 10 C0.34 10 -0.32 10 -1 10 C-1.33 10.99 -1.66 11.98 -2 13 C-2.99 13 -3.98 13 -5 13 C-4.67 10.03 -4.34 7.06 -4 4 C-3.34 4 -2.68 4 -2 4 C-1.34 2.68 -0.68 1.36 0 0 Z " fill="#AD9166" transform="translate(225,174)"/>
<path d="M0 0 C2 1 2 1 2.6328125 2.85546875 C3.5740148 7.31497489 4.23530026 11.41164496 4 16 C3.34 16 2.68 16 2 16 C1.2733203 14.09021367 0.56924412 12.17181485 -0.125 10.25 C-0.51945312 9.18265625 -0.91390625 8.1153125 -1.3203125 7.015625 C-2 4 -2 4 -1.1171875 1.609375 C-0.74851562 1.07828125 -0.37984375 0.5471875 0 0 Z " fill="#D7B79D" transform="translate(268,224)"/>
<path d="M0 0 C0.66 0.33 1.32 0.66 2 1 C2 2.98 2 4.96 2 7 C1.34 7 0.68 7 0 7 C-0.66 8.32 -1.32 9.64 -2 11 C-2.28875 10.360625 -2.5775 9.72125 -2.875 9.0625 C-3.82823451 6.84793921 -3.82823451 6.84793921 -6 6 C-4.02 4.02 -2.04 2.04 0 0 Z " fill="#BDA987" transform="translate(176,284)"/>
<path d="M0 0 C0.86625 0.3403125 0.86625 0.3403125 1.75 0.6875 C-0.23 1.6775 -0.23 1.6775 -2.25 2.6875 C-0.63731308 5.39974618 0.99901874 8.06102812 2.75 10.6875 C1.41666667 10.02083333 0.08333333 9.35416667 -1.25 8.6875 C-2.3328125 8.254375 -2.3328125 8.254375 -3.4375 7.8125 C-5.25 6.6875 -5.25 6.6875 -6 4.5625 C-6.0825 3.94375 -6.165 3.325 -6.25 2.6875 C-2.80384615 -0.38942308 -2.80384615 -0.38942308 0 0 Z " fill="#B7A588" transform="translate(180.25,260.3125)"/>
<path d="M0 0 C1.093125 0.0825 2.18625 0.165 3.3125 0.25 C3.3125 1.24 3.3125 2.23 3.3125 3.25 C0.8125 5.4375 0.8125 5.4375 -1.6875 7.25 C-3.6875 6.25 -3.6875 6.25 -6.6875 4.25 C-4.79150483 0.68106792 -4.16790733 0.28256999 0 0 Z " fill="#BAA47F" transform="translate(185.6875,252.75)"/>
<path d="M0 0 C3.50952175 0.64991143 6.12397322 1.88082237 9 4 C10.3125 6.6875 10.3125 6.6875 11 9 C8.69 8.67 6.38 8.34 4 8 C3.67 6.02 3.34 4.04 3 2 C2.01 1.67 1.02 1.34 0 1 C0 0.67 0 0.34 0 0 Z " fill="#B8A184" transform="translate(176,268)"/>
<path d="M0 0 C0.66 0.33 1.32 0.66 2 1 C-7.04100228 12.11161731 -7.04100228 12.11161731 -14 13 C-9.55618306 8.41283413 -4.79771501 4.21237287 0 0 Z " fill="#C7BAA4" transform="translate(198,233)"/>
<path d="M0 0 C2.43194894 2.43194894 3.33893831 4.71418779 4.6875 7.875 C5.14511719 8.92429687 5.60273438 9.97359375 6.07421875 11.0546875 C7.00062999 14.00200428 7.12150295 15.18604713 6 18 C4 15 4 15 4 11 C3.34 11 2.68 11 2 11 C0.80712589 7.12315913 0 4.08378077 0 0 Z " fill="#DFBEAB" transform="translate(331,310)"/>
<path d="M0 0 C0.33 0 0.66 0 1 0 C1.125 6.75 1.125 6.75 0 9 C-0.66 9 -1.32 9 -2 9 C-1.67 9.99 -1.34 10.98 -1 12 C-1.99 12.33 -2.98 12.66 -4 13 C-4.33 13.99 -4.66 14.98 -5 16 C-5.33 15.34 -5.66 14.68 -6 14 C-5.0390625 11.50390625 -5.0390625 11.50390625 -3.625 8.5625 C-2.26442584 5.70833464 -1.00046373 3.00139119 0 0 Z " fill="#C7B9A3" transform="translate(223,169)"/>
<path d="M0 0 C3.875 2.625 3.875 2.625 5 6 C5.06740865 7.56118428 5.08514456 9.1250252 5.0625 10.6875 C5.05347656 11.49574219 5.04445312 12.30398437 5.03515625 13.13671875 C5.02355469 13.75160156 5.01195312 14.36648437 5 15 C0 5.08695652 0 5.08695652 0 0 Z " fill="#C3B59D" transform="translate(246,166)"/>
<path d="M0 0 C0.66 0 1.32 0 2 0 C2 2 2 2 -0.25 4.375 C-1.1575 5.24125 -2.065 6.1075 -3 7 C-3.721875 7.763125 -4.44375 8.52625 -5.1875 9.3125 C-7 11 -7 11 -9 11 C-9.33 11.99 -9.66 12.98 -10 14 C-10.33 12.68 -10.66 11.36 -11 10 C-10.01 10 -9.02 10 -8 10 C-8 9.34 -8 8.68 -8 8 C-7.34 8 -6.68 8 -6 8 C-6 7.34 -6 6.68 -6 6 C-5.34 6 -4.68 6 -4 6 C-3.71125 5.38125 -3.4225 4.7625 -3.125 4.125 C-2 2 -2 2 0 0 Z " fill="#F1F1EC" transform="translate(306,208)"/>
<path d="M0 0 C0.66 0 1.32 0 2 0 C2 1.32 2 2.64 2 4 C2.66 4 3.32 4 4 4 C4.36368892 5.60203467 4.71561952 7.20674203 5.0625 8.8125 C5.25972656 9.70582031 5.45695313 10.59914062 5.66015625 11.51953125 C6 14 6 14 5 17 C4.16080602 14.73117913 3.32848276 12.46022973 2.5 10.1875 C2.26152344 9.54490234 2.02304688 8.90230469 1.77734375 8.24023438 C0.72931254 5.35066261 0 3.09923939 0 0 Z " fill="#CEBBA7" transform="translate(240,149)"/>
<path d="M0 0 C0.680625 0.61875 1.36125 1.2375 2.0625 1.875 C5.45881234 4.3319068 7.96018821 5.04945605 12 6 C11.34 7.32 10.68 8.64 10 10 C10 9.34 10 8.68 10 8 C8.906875 7.731875 7.81375 7.46375 6.6875 7.1875 C1.77083333 5.60416667 1.77083333 5.60416667 0 3 C0 2.01 0 1.02 0 0 Z " fill="#DCBAA6" transform="translate(295,330)"/>
<path d="M0 0 C1.51953125 1.23828125 1.51953125 1.23828125 3 3 C3.10118893 5.78535848 2.49854208 8.23535757 2 11 C2.99 11.33 3.98 11.66 5 12 C5 13.65 5 15.3 5 17 C4.34 17 3.68 17 3 17 C1.25314692 13.17254549 0.65113667 9.87557277 0.375 5.6875 C0.26285156 4.08455078 0.26285156 4.08455078 0.1484375 2.44921875 C0.09945313 1.64097656 0.05046875 0.83273437 0 0 Z " fill="#D8B099" transform="translate(284,293)"/>
<path d="M0 0 C0.66 0.33 1.32 0.66 2 1 C2 1.99 2 2.98 2 4 C0.54735962 4.8638129 -0.9123163 5.71580454 -2.375 6.5625 C-3.59316406 7.27599609 -3.59316406 7.27599609 -4.8359375 8.00390625 C-5.55007812 8.33261719 -6.26421875 8.66132813 -7 9 C-7.66 8.67 -8.32 8.34 -9 8 C-6.03 5.36 -3.06 2.72 0 0 Z " fill="#BBAB91" transform="translate(177,250)"/>
<path d="M0 0 C2.02196167 2.02196167 2.67551358 3.25864486 3.6875 5.875 C3.95949219 6.55304688 4.23148437 7.23109375 4.51171875 7.9296875 C5.07336741 10.31107782 4.76694846 11.70430191 4 14 C4 13.34 4 12.68 4 12 C3.34 12 2.68 12 2 12 C0.00214565 7.8794254 -0.17835515 4.54805635 0 0 Z " fill="#C5B79E" transform="translate(273,178)"/>
<path d="M0 0 C1.53445094 3.06890187 0.54984289 5.70094266 0 9 C1.32 9 2.64 9 4 9 C4 10.98 4 12.96 4 15 C1.23435847 12.85662781 -0.79753398 11.26864349 -1.3671875 7.69921875 C-1.37444566 5.42378587 -1.32574839 3.25231741 -1 1 C-0.67 0.67 -0.34 0.34 0 0 Z " fill="#BDAC97" transform="translate(167,259)"/>
<path d="M0 0 C0.99 0.33 1.98 0.66 3 1 C3.33 4.3 3.66 7.6 4 11 C3.01 11.495 3.01 11.495 2 12 C1.67 10.68 1.34 9.36 1 8 C0.01 8.66 -0.98 9.32 -2 10 C-1.67 9.278125 -1.34 8.55625 -1 7.8125 C0.00603529 4.98302573 0.16977402 2.97104534 0 0 Z " fill="#F6E7DB" transform="translate(271,240)"/>
<path d="M0 0 C-0.59927826 3.35595828 -1.84622436 5.37801226 -4 8 C-4 7.01 -4 6.02 -4 5 C-5.32 4.34 -6.64 3.68 -8 3 C-4.93882432 0.37613513 -4.26826873 0 0 0 Z " fill="#D9D9D7" transform="translate(334,187)"/>
<path d="M0 0 C1 2 1 2 0.00390625 5.2578125 C-0.46889984 6.5497052 -0.94971969 7.83868638 -1.4375 9.125 C-1.68048828 9.78371094 -1.92347656 10.44242188 -2.17382812 11.12109375 C-2.77578321 12.74991338 -3.38702412 14.37529575 -4 16 C-4.33 16 -4.66 16 -5 16 C-5.125 8.25 -5.125 8.25 -4 6 C-3.34 6 -2.68 6 -2 6 C-1.34 4.02 -0.68 2.04 0 0 Z " fill="#CBBDA8" transform="translate(239,147)"/>
<path d="M0 0 C1.65 0 3.3 0 5 0 C4.07038578 1.15224028 3.1309875 2.29659176 2.1875 3.4375 C1.40439453 4.39462891 1.40439453 4.39462891 0.60546875 5.37109375 C-1 7 -1 7 -4 8 C-4 7.01 -4 6.02 -4 5 C-3.01 4.34 -2.02 3.68 -1 3 C-0.67 2.01 -0.34 1.02 0 0 Z " fill="#BDA892" transform="translate(203,239)"/>
<path d="M0 0 C-0.33 1.32 -0.66 2.64 -1 4 C-1.66 4 -2.32 4 -3 4 C-3.66 6.31 -4.32 8.62 -5 11 C-5.66 11 -6.32 11 -7 11 C-4.91891892 0 -4.91891892 0 0 0 Z " fill="#B7A585" transform="translate(221,182)"/>
<path d="M0 0 C0.66 0.33 1.32 0.66 2 1 C2.4140625 3.06640625 2.4140625 3.06640625 2.625 5.5625 C2.69976562 6.38878906 2.77453125 7.21507812 2.8515625 8.06640625 C2.90054688 8.70449219 2.94953125 9.34257812 3 10 C1.35 10.66 -0.3 11.32 -2 12 C-1.67 11.319375 -1.34 10.63875 -1 9.9375 C0.17307315 6.49159762 0.14180493 3.61602578 0 0 Z " fill="#B09E7D" transform="translate(209,348)"/>
<path d="M0 0 C0.99 0.33 1.98 0.66 3 1 C3 1.99 3 2.98 3 4 C3.66 4.33 4.32 4.66 5 5 C4.67 6.98 4.34 8.96 4 11 C1.6870518 8.6870518 1.50419025 7.52095125 0.875 4.375 C0.70742187 3.55773437 0.53984375 2.74046875 0.3671875 1.8984375 C0.24601563 1.27195313 0.12484375 0.64546875 0 0 Z " fill="#C7BAA2" transform="translate(251,181)"/>
<path d="M0 0 C0.33 0.66 0.66 1.32 1 2 C0.34 2 -0.32 2 -1 2 C-1 2.66 -1 3.32 -1 4 C-1.66 4 -2.32 4 -3 4 C-3.226875 4.5775 -3.45375 5.155 -3.6875 5.75 C-5.33038023 8.5663661 -7.39533227 10.08077114 -10 12 C-8.65263662 9.06559801 -7.11433035 6.74926573 -5 4.3125 C-4.484375 3.71050781 -3.96875 3.10851562 -3.4375 2.48828125 C-2 1 -2 1 0 0 Z " fill="#EDEDED" transform="translate(319,195)"/>
<path d="M0 0 C1.53166168 4.08443115 0.63081652 7.79455657 0 12 C-1.32 12 -2.64 12 -4 12 C-2.66666667 8 -1.33333333 4 0 0 Z " fill="#C7B39F" transform="translate(230,153)"/>
<path d="M0 0 C-0.6875 1.9375 -0.6875 1.9375 -2 4 C-4.5625 4.625 -4.5625 4.625 -7 5 C-7.33 5.66 -7.66 6.32 -8 7 C-8.33 6.01 -8.66 5.02 -9 4 C-3.375 0 -3.375 0 0 0 Z " fill="#AD9267" transform="translate(191,245)"/>
<path d="M0 0 C2.27795022 2.27795022 3.05219877 3.93787293 4 7 C3.625 9.3125 3.625 9.3125 3 11 C3 10.34 3 9.68 3 9 C2.01 8.67 1.02 8.34 0 8 C0 5.36 0 2.72 0 0 Z " fill="#E5C8B6" transform="translate(338,327)"/>
<path d="M0 0 C2.1875 0.3125 2.1875 0.3125 4 1 C3.625 2.9375 3.625 2.9375 3 5 C2.01 5.495 2.01 5.495 1 6 C0.34 5.34 -0.32 4.68 -1 4 C-1.66 3.67 -2.32 3.34 -3 3 C-1.75 1.4375 -1.75 1.4375 0 0 Z " fill="#EAEAEA" transform="translate(336,192)"/>
<path d="M0 0 C0.66 0.99 1.32 1.98 2 3 C-0.57784846 5.64752004 -2.91648098 7.94432065 -6 10 C-5.49477778 5.62140745 -2.82172778 3.18348776 0 0 Z " fill="#C2B7A7" transform="translate(274,251)"/>
<path d="M0 0 C-1.61992165 0.86375896 -3.24611861 1.71575854 -4.875 2.5625 C-6.23238281 3.27599609 -6.23238281 3.27599609 -7.6171875 4.00390625 C-8.40351563 4.33261719 -9.18984375 4.66132813 -10 5 C-10.66 4.67 -11.32 4.34 -12 4 C-8.51556551 -0.03460835 -5.13031263 -1.52493369 0 0 Z " fill="#BAAA82" transform="translate(191,245)"/>
<path d="M0 0 C2.31 0.66 4.62 1.32 7 2 C7 2.66 7 3.32 7 4 C5.02 4 3.04 4 1 4 C0.67 2.68 0.34 1.36 0 0 Z " fill="#B8A992" transform="translate(185,304)"/>
<path d="M0 0 C0.99 0.33 1.98 0.66 3 1 C3 1.66 3 2.32 3 3 C2.34 3 1.68 3 1 3 C1 4.98 1 6.96 1 9 C0.34 9 -0.32 9 -1 9 C-1.125 2.25 -1.125 2.25 0 0 Z " fill="#AA9573" transform="translate(168,259)"/>
<path d="M0 0 C2.44839588 3.67259383 4 6.54648201 4 11 C3.34 11 2.68 11 2 11 C0.19769832 7.17010894 -0.19622241 4.21878192 0 0 Z " fill="#EACDB6" transform="translate(308,253)"/>
<path d="M0 0 C2.18975773 3.28463659 2.99806563 6.20696275 4 10 C3.01 10.33 2.02 10.66 1 11 C0.4254048 7.26513121 0 3.78706732 0 0 Z " fill="#BEAE96" transform="translate(267,161)"/>
<path d="M0 0 C0.33 0.99 0.66 1.98 1 3 C-0.3125 4.9375 -0.3125 4.9375 -2 7 C-2.69580267 8.31836295 -3.37224433 9.64791086 -4 11 C-4.33 8.69 -4.66 6.38 -5 4 C-4.01 4.33 -3.02 4.66 -2 5 C-1.34 3.35 -0.68 1.7 0 0 Z " fill="#F4EDE4" transform="translate(311,242)"/>
<path d="M0 0 C6.93 0.495 6.93 0.495 14 1 C14 1.33 14 1.66 14 2 C7.565 2.495 7.565 2.495 1 3 C0.67 2.01 0.34 1.02 0 0 Z " fill="#CFC6B4" transform="translate(182,352)"/>
<path d="M0 0 C1.5 1.125 1.5 1.125 3 3 C3.1875 6.1875 3.1875 6.1875 3 9 C1.5 7.875 1.5 7.875 0 6 C-0.1875 2.8125 -0.1875 2.8125 0 0 Z " fill="#C0A388" transform="translate(265,218)"/>
<path d="M0 0 C0.33 0 0.66 0 1 0 C1.1953125 1.98567708 1.390625 3.97135417 1.5859375 5.95703125 C1.92665391 8.29988142 1.92665391 8.29988142 4 11 C2.68 11 1.36 11 0 11 C-1.35015859 6.94952424 -0.62084998 4.2079832 0 0 Z " fill="#D9CDB3" transform="translate(175,339)"/>
<path d="M0 0 C2.62386487 3.06117568 3 3.73173127 3 8 C2.01 7.67 1.02 7.34 0 7 C0 4.69 0 2.38 0 0 Z " fill="#BFB19C" transform="translate(177,311)"/>
<path d="M0 0 C0.66 0 1.32 0 2 0 C3.2890625 1.53125 3.2890625 1.53125 4.625 3.5 C5.07101563 4.1496875 5.51703125 4.799375 5.9765625 5.46875 C6.31429687 5.9740625 6.65203125 6.479375 7 7 C6.401875 6.690625 5.80375 6.38125 5.1875 6.0625 C2.91043228 4.89790296 2.91043228 4.89790296 0 4 C0 2.68 0 1.36 0 0 Z " fill="#D5C7B5" transform="translate(176,264)"/>
</svg>
